<?xml version="1.0" encoding="UTF-8"?>
<svg version="1.1" xmlns="http://www.w3.org/2000/svg" width="512" height="512">
<path d="M0 0 C1.69061239 -0.00668677 1.69061239 -0.00668677 3.41537857 -0.01350862 C5.26539537 -0.01323207 5.26539537 -0.01323207 7.15278625 -0.01294994 C8.46687344 -0.01662663 9.78096062 -0.02030332 11.13486862 -0.02409142 C14.78118377 -0.03409194 18.42748247 -0.03782508 22.07380939 -0.04048073 C26.00721098 -0.04438961 29.94059962 -0.05396759 33.87399292 -0.0626936 C43.37297845 -0.08244219 52.87196503 -0.09252248 62.37096596 -0.10142139 C66.84719029 -0.10580718 71.32341344 -0.11117326 75.79963684 -0.11641026 C90.6849798 -0.13342142 105.57032203 -0.14791459 120.45567322 -0.155159 C124.31719463 -0.15706881 128.17871604 -0.15898915 132.04023743 -0.16094494 C132.99996845 -0.16142868 133.95969948 -0.16191242 134.94851327 -0.16241082 C150.48821281 -0.17070739 166.02783528 -0.19603852 181.56750119 -0.22852562 C197.53140898 -0.26162678 213.49527765 -0.27961055 229.45921993 -0.28280324 C238.41843381 -0.28496557 247.37753532 -0.29367361 256.3367157 -0.31926441 C263.96836581 -0.34101326 271.59987626 -0.34900133 279.23155385 -0.33929763 C283.12182023 -0.33476492 287.01179868 -0.33657863 290.90202522 -0.35605907 C294.47151839 -0.37377817 298.04051548 -0.37262325 301.61001456 -0.35716178 C303.49603253 -0.35368931 305.38205623 -0.36974658 307.2680006 -0.38676625 C323.9266767 -0.26224172 336.19661897 6.02880143 348.34541321 16.98578358 C350.27072266 19.02216857 351.43548637 20.51049346 352.37666321 23.13422108 C352.06498249 26.6873813 351.5040851 29.75195539 350.37666321 33.13422108 C351.12769653 35.46017493 351.12769653 35.46017493 352.31416321 37.82172108 C352.69443665 38.62996326 353.07471008 39.43820545 353.46650696 40.27093983 C353.9170343 41.19326405 353.9170343 41.19326405 354.37666321 42.13422108 C355.5252179 41.66371326 356.67377258 41.19320545 357.85713196 40.70843983 C380.25272127 31.67472151 404.35490496 26.62903939 427.68916321 35.88812733 C441.78285356 42.42284713 451.17623314 52.73896691 457.06416321 67.00922108 C464.76279508 89.40524107 459.97253921 114.14811827 450.37666321 135.13422108 C450.01443665 135.97855701 449.65221008 136.82289295 449.27900696 137.69281483 C447.3601395 141.92675315 445.44882837 144.80726955 441.37666321 147.13422108 C440.42404602 147.04656483 439.47142883 146.95890858 438.48994446 146.86859608 C435.1659047 146.80615416 435.1659047 146.80615416 433.00556946 149.61859608 C432.3236554 150.69625233 431.64174133 151.77390858 430.93916321 152.88422108 C430.23920227 153.95156483 429.53924133 155.01890858 428.81806946 156.11859608 C427.23197718 159.43692464 427.21959958 159.85691653 428.37666321 163.13422108 C428.73957907 167.15385874 428.83198122 169.37966334 426.72431946 172.87250233 C425.59316711 174.14674061 425.59316711 174.14674061 424.43916321 175.44672108 C423.61545227 176.39031483 422.79174133 177.33390858 421.94306946 178.30609608 C421.0961554 179.23937733 420.24924133 180.17265858 419.37666321 181.13422108 C418.24551086 182.41039295 418.24551086 182.41039295 417.09150696 183.71234608 C415.60864855 185.37565816 414.1163353 187.03058675 412.61494446 188.67718983 C411.14207514 190.29400449 409.68073896 191.92141408 408.23213196 193.56000233 C399.82546151 203.05726786 391.10532323 212.01789686 381.16181946 219.91547108 C377.13670696 223.12201231 373.23536421 226.47271265 369.32197571 229.81390858 C366.54489208 232.00169064 363.75639219 233.6452508 360.68916321 235.38422108 C357.26193102 237.6489361 356.50123377 238.60870714 355.53681946 242.67718983 C355.27886823 246.20016759 355.21035721 249.6075557 355.37666321 253.13422108 C356.13978821 253.19609608 356.90291321 253.25797108 357.68916321 253.32172108 C360.37666321 254.13422108 360.37666321 254.13422108 362.02082253 256.35530567 C363.47599133 259.33780285 363.75349368 261.11863428 363.75761414 264.40936756 C363.76607361 265.45237019 363.77453308 266.49537281 363.7832489 267.56998158 C363.77413986 269.27047153 363.77413986 269.27047153 363.7648468 271.00531483 C363.77273224 272.80852695 363.77273224 272.80852695 363.78077698 274.64816761 C363.79170615 277.93748143 363.7891616 281.22643214 363.77963972 284.51574039 C363.77203124 287.96206123 363.77909203 291.40835825 363.78379822 294.85468006 C363.78925232 300.64158943 363.78207328 306.42838385 363.76777649 312.21527576 C363.75145054 318.9006045 363.7567393 325.58565875 363.77325571 332.27098083 C363.78688047 338.01635903 363.78878542 343.76165471 363.7809397 349.50704384 C363.77626859 352.9361092 363.77562274 356.36504565 363.78554916 359.79410267 C363.79315862 363.61730029 363.78156545 367.43996913 363.7648468 371.26312733 C363.77091949 372.3967873 363.77699219 373.53044727 363.7832489 374.69846058 C363.77478943 375.7414632 363.76632996 376.78446583 363.75761414 377.85907459 C363.75648306 378.76239017 363.75535198 379.66570576 363.75418663 380.59639454 C363.27929208 383.78877924 362.39435551 385.61555731 360.37666321 388.13422108 C358.72666321 388.46422108 357.07666321 388.79422108 355.37666321 389.13422108 C355.37666321 392.76422108 355.37666321 396.39422108 355.37666321 400.13422108 C357.04575745 400.11851063 358.71485168 400.10280018 360.43452454 400.08661366 C365.99042786 400.03795734 371.54630031 400.00364036 377.10236073 399.97878456 C380.46629709 399.96322361 383.82999988 399.94216424 387.19380188 399.90790272 C391.07382722 399.87125125 394.95352674 399.854433 398.83369446 399.84125233 C400.61874138 399.81802654 400.61874138 399.81802654 402.43984985 399.79433155 C418.1063247 399.79121855 431.74385649 404.85980005 443.12666321 415.78656483 C455.82669727 429.03781564 460.04205163 443.13434894 459.69306946 461.13422108 C459.01055141 476.28098141 451.69707159 487.61603483 441.37666321 498.13422108 C440.82236633 498.71301014 440.26806946 499.2917992 439.69697571 499.88812733 C429.11638198 509.96864325 415.26917134 512.43672343 401.31533813 512.40164661 C399.98141113 512.40538622 398.64748632 512.40998898 397.31356496 512.41537726 C393.65841257 512.42758457 390.00335186 512.42734948 386.34818375 512.42498851 C382.40187752 512.42457976 378.45560045 512.43562508 374.50930786 512.44510365 C366.78119413 512.46170268 359.0531109 512.46721272 351.32498083 512.4683284 C345.040921 512.46927949 338.75687121 512.47339285 332.47281456 512.47972965 C314.64559525 512.49733987 296.8184 512.50656899 278.99117193 512.5050687 C278.03049587 512.50498879 277.06981981 512.50490888 276.08003235 512.50482655 C274.63725292 512.5047039 274.63725292 512.5047039 273.16532644 512.50457878 C257.58304139 512.50376618 242.00085308 512.52289807 226.41859601 512.55110328 C210.40829387 512.57985392 194.39803887 512.59364234 178.38771027 512.59191573 C169.40341398 512.59125253 160.41921906 512.59671388 151.43494606 512.61827183 C143.78427739 512.63651243 136.13375604 512.64080745 128.483075 512.62725298 C124.58279837 512.62073752 120.68280413 512.62055422 116.78255463 512.63795948 C113.20516633 512.65375908 109.62828271 512.65075733 106.0509062 512.63339122 C104.15828669 512.6289 102.26565109 512.64392459 100.37309343 512.65987051 C84.65781101 512.53398366 70.73700882 506.35304347 59.66816711 495.23090076 C50.21728776 485.0051551 45.05132743 471.56551316 45.10923767 457.72021961 C45.10470656 456.91174666 45.10017545 456.10327371 45.09550703 455.27030158 C45.08292384 452.5819784 45.08447939 449.89385937 45.08613586 447.20551014 C45.08014717 445.26995555 45.07334083 443.33440334 45.06578064 441.39885426 C45.04815699 436.15747819 45.04342704 430.91616747 45.04214907 425.67476463 C45.04072586 422.4002035 45.03645325 419.1256589 45.03115463 415.85110188 C45.01267266 404.42837438 45.00448251 393.0056935 45.00605774 381.58295155 C45.00726151 370.93094571 44.98610838 360.27914172 44.95457041 349.62718701 C44.92845045 340.47968314 44.91768851 331.33224544 44.91896856 322.18470454 C44.91947907 316.72180272 44.91374545 311.25908071 44.89261246 305.79621601 C44.87329996 300.6644935 44.8730575 295.53312382 44.88764572 290.40138912 C44.88974301 288.51636524 44.8849785 286.63131964 44.8729248 284.74633312 C44.85755725 282.17723219 44.86672303 279.60936117 44.88218689 277.04028797 C44.87189976 276.29087948 44.86161264 275.54147099 44.85101378 274.76935315 C44.8969828 271.32447476 45.14731461 269.44453004 47.22006798 266.6400919 C49.37666321 265.13422108 49.37666321 265.13422108 52.37666321 265.13422108 C52.37666321 260.18422108 52.37666321 255.23422108 52.37666321 250.13422108 C51.05666321 249.80422108 49.73666321 249.47422108 48.37666321 249.13422108 C46.65158367 247.97628021 46.65158367 247.97628021 45.37666321 246.13422108 C44.99190235 243.25068092 44.99190235 243.25068092 44.97793579 239.66127491 C44.97128896 239.00125971 44.96464214 238.3412445 44.95779389 237.66122884 C44.93911313 235.445446 44.94177245 233.23020073 44.94429016 231.01434803 C44.93527606 229.42771101 44.92494971 227.84108097 44.91340637 226.25446033 C44.88576877 221.94277377 44.87654272 217.63121908 44.8705523 213.31945539 C44.86118617 208.81504549 44.83498427 204.3107348 44.81054688 199.80638599 C44.7668296 191.27479899 44.73831479 182.74323119 44.71522349 174.21156615 C44.68819979 164.49941165 44.64428658 154.78735668 44.59893477 145.07527316 C44.50601365 125.09497596 44.43436715 105.11464897 44.37666321 85.13422108 C43.91775696 85.67691639 43.45885071 86.2196117 42.98603821 86.77875233 C42.37244446 87.49418201 41.75885071 88.2096117 41.12666321 88.94672108 C40.22174133 90.00826405 40.22174133 90.00826405 39.29853821 91.09125233 C37.37666321 93.13422108 37.37666321 93.13422108 35.16963196 94.64984608 C32.91089737 96.1697161 32.91089737 96.1697161 32.93916321 100.07172108 C32.94045227 100.74074451 32.94174133 101.40976795 32.94306946 102.09906483 C32.05456986 105.29153581 30.07250289 106.32827022 27.37666321 108.13422108 C14.22041573 114.38440316 -1.93892094 113.92485969 -15.54911804 109.38812733 C-30.73281421 103.19503143 -40.9035029 92.17733763 -47.93583679 77.57172108 C-53.82805924 63.23313684 -52.9667386 47.43592988 -47.47489929 33.14593983 C-40.65060412 17.93920115 -28.32873745 7.79014441 -12.91239929 1.86078358 C-8.57721505 0.48476947 -4.54133453 0.00835431 0 0 Z " fill="#FBEEE5" transform="translate(51.62333679199219,-0.13422107696533203)"/>
<path d="M0 0 C12.83913662 12.04167472 18.72303553 26.76857679 19.33862305 44.17895508 C19.60417075 60.66608109 15.82855277 76.06601061 9 91 C8.63777344 91.84433594 8.27554687 92.68867188 7.90234375 93.55859375 C5.98347629 97.79253208 4.07216516 100.67304848 0 103 C-0.95261719 102.91234375 -1.90523438 102.8246875 -2.88671875 102.734375 C-6.2107585 102.67193308 -6.2107585 102.67193308 -8.37109375 105.484375 C-9.05300781 106.56203125 -9.73492187 107.6396875 -10.4375 108.75 C-11.48744141 110.35101563 -11.48744141 110.35101563 -12.55859375 111.984375 C-14.14468603 115.30270356 -14.15706363 115.72269545 -13 119 C-12.63708414 123.01963766 -12.54468199 125.24544226 -14.65234375 128.73828125 C-15.78349609 130.01251953 -15.78349609 130.01251953 -16.9375 131.3125 C-17.76121094 132.25609375 -18.58492188 133.1996875 -19.43359375 134.171875 C-20.28050781 135.10515625 -21.12742187 136.0384375 -22 137 C-23.13115234 138.27617187 -23.13115234 138.27617187 -24.28515625 139.578125 C-25.76801466 141.24143708 -27.26032791 142.89636567 -28.76171875 144.54296875 C-30.23458807 146.15978342 -31.69592425 147.787193 -33.14453125 149.42578125 C-41.55538195 158.92776934 -50.27877954 167.89960378 -60.234375 175.79296875 C-63.13485505 178.10761738 -65.93611156 180.51860927 -68.75 182.9375 C-105.96931578 213.87427143 -152.20653138 230.2469093 -197.85057068 244.08345032 C-200.95992881 245.02748696 -204.06627525 245.98124932 -207.17263794 246.93508911 C-209.35336367 247.59937082 -211.5384745 248.24724731 -213.72436523 248.89428711 C-239.58661244 256.7067208 -255.30356204 271.92668428 -273.6953125 291.11352539 C-276.05720014 293.5720055 -278.44050117 296.00794899 -280.828125 298.44140625 C-281.54494446 299.20062881 -282.26176392 299.95985138 -283.00030518 300.74208069 C-288.05996624 305.85335045 -288.05996624 305.85335045 -292.85449219 306.60131836 C-296 306 -296 306 -298.5 303.9375 C-300.02363548 300.95371385 -300.38025174 299.2998153 -299.80352783 296.01428223 C-297.98239727 291.44907517 -293.89520204 288.27041386 -290.3984375 284.953125 C-289.52861237 284.10127625 -288.65878723 283.24942749 -287.76260376 282.37176514 C-284.98063885 279.64978306 -282.17982292 276.94840818 -279.375 274.25 C-276.59323133 271.56435426 -273.8163837 268.87428263 -271.05166626 266.17108154 C-269.33344021 264.49188767 -267.6054577 262.82259579 -265.86605835 261.16534424 C-256.28938632 251.82498238 -250.82059811 241.31480525 -246 229 C-245.59136719 227.96875 -245.18273437 226.9375 -244.76171875 225.875 C-242.40814936 219.61925856 -240.51230677 213.32907265 -238.76831055 206.88208008 C-231.63820321 180.53860681 -222.86611488 154.60840091 -211 130 C-210.38608398 128.72648682 -210.38608398 128.72648682 -209.75976562 127.42724609 C-199.20035718 105.85357546 -185.38975573 86.37398721 -170 68 C-169.32130859 67.18378174 -169.32130859 67.18378174 -168.62890625 66.35107422 C-159.8831609 55.85440221 -150.72561579 45.81549733 -140.29296875 36.953125 C-138.42099222 35.35859644 -136.57632179 33.74249358 -134.73828125 32.109375 C-121.57385403 20.45985981 -108.23730838 10.25635888 -92.70776367 1.96850586 C-91.08776547 1.0497735 -89.54540373 -0.00205521 -88.01171875 -1.05859375 C-84.63548357 -3.23497362 -81.19183151 -4.69774544 -77.4375 -6.0625 C-76.74003662 -6.31926514 -76.04257324 -6.57603027 -75.32397461 -6.84057617 C-50.61076451 -15.70109064 -21.65859051 -16.78861158 0 0 Z " fill="#EDAE77" transform="translate(493,44)"/>
<path d="M0 0 C33.68255428 -0.0687273 67.36509107 -0.12155982 101.04769994 -0.15319599 C105.02789383 -0.15694793 109.00808757 -0.16083091 112.98828125 -0.16479492 C114.17681496 -0.16597532 114.17681496 -0.16597532 115.38935944 -0.16717956 C128.20439614 -0.18021908 141.0193923 -0.20386489 153.83440498 -0.23145839 C166.99232478 -0.2595531 180.15022342 -0.27618484 193.30817199 -0.28226548 C201.42162785 -0.28637351 209.5349691 -0.29932934 217.64838967 -0.3237494 C223.87892263 -0.34154241 230.10936896 -0.34335538 236.33992386 -0.33932304 C238.8891813 -0.34014642 241.4384432 -0.34608772 243.98767471 -0.35761642 C247.47812602 -0.37262363 250.96809376 -0.36892333 254.45855713 -0.36076355 C255.95861435 -0.37387134 255.95861435 -0.37387134 257.48897576 -0.38724393 C270.0319789 -0.308419 281.98046677 2.97312237 291.52734375 11.4296875 C299.59638025 20.033806 303.54517909 28.72350594 303.375 40.4375 C303.38660156 41.23220703 303.39820313 42.02691406 303.41015625 42.84570312 C303.3558401 53.97146144 298.93873366 62.86418447 291.234375 70.82421875 C276.56065637 83.94463834 258.62071437 82.42443303 240.10620117 82.34057617 C237.48362742 82.33972902 234.86105296 82.34020676 232.23847961 82.34190369 C226.61340711 82.34346904 220.98843983 82.33413763 215.36339378 82.31719017 C207.23075802 82.29270378 199.0981726 82.2849851 190.96550397 82.2812262 C177.76758261 82.27467675 164.56971719 82.25475669 151.37182617 82.22631836 C138.55900348 82.19873864 125.74619603 82.17752426 112.93334961 82.16479492 C112.14222419 82.16400675 111.35109877 82.16321858 110.53599986 82.16240653 C106.56675525 82.15849113 102.59751053 82.15470007 98.62826574 82.15097082 C65.75213645 82.11992187 32.87607574 82.06712738 0 82 C1.47869423 78.92708231 3.111584 76.5483427 5.3125 73.9375 C14.84530283 61.8228964 17.20491492 48.11481879 16 33 C13.88953807 21.18394067 8.96346981 10.14860891 0 2 C0 1.34 0 0.68 0 0 Z " fill="#FCEFE7" transform="translate(192,415)"/>
<path d="M0 0 C2.81424556 2.12162108 3.87678821 3.29817555 4.49219131 6.80356216 C4.48850414 7.89127789 4.48481697 8.97899361 4.48101807 10.09967041 C4.48651672 11.35046387 4.49201538 12.60125732 4.49768066 13.88995361 C4.48352501 15.27331927 4.46898578 16.65668105 4.45410156 18.04003906 C4.4529731 19.49873829 4.45360691 20.95743979 4.45587158 22.4161377 C4.45701974 26.37465126 4.43349433 30.33268048 4.40557575 34.29108143 C4.38057891 38.428384 4.37822146 42.56569754 4.37347412 46.70306396 C4.36103927 54.53704987 4.32821085 62.37081262 4.28807616 70.20470023 C4.24337424 79.12357605 4.2213754 88.0424625 4.20129442 96.96142244 C4.1594786 115.3077415 4.08911672 133.65385281 4 152 C4.68457779 151.44556717 5.36915558 150.89113434 6.07447815 150.31990051 C6.97359421 149.59534164 7.87271027 148.87078278 8.79907227 148.12426758 C10.13531395 147.04511833 10.13531395 147.04511833 11.49855042 145.94416809 C14.19345466 143.84964383 16.8683252 142.18025503 19.9375 140.6875 C21.28134766 140.01267578 21.28134766 140.01267578 22.65234375 139.32421875 C31.94266614 135.64928376 40.40283992 134.56360118 50.35925293 134.61904907 C51.66354358 134.6143691 52.96783423 134.60968913 54.31164885 134.60486734 C57.90274156 134.5924289 61.49359285 134.59849472 65.08468604 134.60782599 C68.96887267 134.61464575 72.85301932 134.60412083 76.73719788 134.59588623 C84.33477624 134.58257778 91.93226547 134.58541372 99.52984726 134.59412415 C105.70703429 134.60091169 111.88419642 134.6018128 118.06138611 134.5985527 C118.94206 134.598093 119.8227339 134.59763331 120.73009488 134.59715968 C122.51941797 134.59620046 124.30874105 134.59522782 126.09806412 134.5942419 C142.85886979 134.58569647 159.61962615 134.59550884 176.38042372 134.611643 C190.74794388 134.62504541 205.11539131 134.62271708 219.48291016 134.60888672 C236.18558146 134.59281593 252.88820959 134.58652036 269.59088755 134.59572351 C271.37346299 134.59667911 273.15603844 134.59762223 274.93861389 134.5985527 C275.81557237 134.59901553 276.69253085 134.59947836 277.59606382 134.59995521 C283.76261575 134.6025406 289.9291402 134.59818383 296.09568787 134.59111404 C303.61525791 134.58268218 311.13473406 134.58501455 318.65429342 134.60095628 C322.48758953 134.60881636 326.32072933 134.61196944 330.15402412 134.60200882 C334.31639996 134.59135703 338.47838442 134.60411395 342.64074707 134.61904907 C343.842415 134.61235691 345.04408294 134.60566474 346.28216505 134.59876978 C361.84703811 134.70688085 375.44331064 139.79864675 386.75 150.65234375 C399.45003406 163.90359457 403.66538843 178.00012786 403.31640625 196 C402.6338882 211.14676033 395.32040838 222.48181376 385 233 C384.44570313 233.57878906 383.89140625 234.15757812 383.3203125 234.75390625 C372.73971877 244.83442217 358.89250813 247.30250236 344.93867493 247.26742554 C343.60474792 247.27116514 342.27082311 247.2757679 340.93690175 247.28115618 C337.28174936 247.29336349 333.62668866 247.2931284 329.97152054 247.29076743 C326.02521431 247.29035868 322.07893724 247.30140401 318.13264465 247.31088257 C310.40453092 247.3274816 302.6764477 247.33299164 294.94831762 247.33410732 C288.66425779 247.33505842 282.38020801 247.33917177 276.09615135 247.34550858 C258.26893204 247.36311879 240.44173679 247.37234791 222.61450873 247.37084763 C221.65383266 247.37076772 220.6931566 247.3706878 219.70336914 247.37060547 C218.74151619 247.37052371 217.77966324 247.37044195 216.78866323 247.37035771 C201.20637819 247.3695451 185.62418987 247.388677 170.0419328 247.4168822 C154.03163066 247.44563284 138.02137566 247.45942126 122.01104707 247.45769465 C113.02675077 247.45703145 104.04255585 247.4624928 95.05828285 247.48405075 C87.40761418 247.50229136 79.75709283 247.50658637 72.10641179 247.4930319 C68.20613516 247.48651644 64.30614092 247.48633315 60.40589142 247.5037384 C56.82850312 247.519538 53.2516195 247.51653625 49.674243 247.49917014 C47.78162348 247.49467893 45.88898788 247.50970351 43.99643022 247.52564943 C28.2811478 247.39976259 14.36034561 241.2188224 3.29150391 230.09667969 C-6.15937545 219.87093403 -11.32533578 206.43129208 -11.26742554 192.58599854 C-11.27422221 191.37328911 -11.27422221 191.37328911 -11.28115618 190.1360805 C-11.29373936 187.44775732 -11.29218382 184.75963829 -11.29052734 182.07128906 C-11.29651604 180.13573447 -11.30332237 178.20018227 -11.31088257 176.26463318 C-11.32850622 171.02325711 -11.33323617 165.78194639 -11.33451414 160.54054356 C-11.33593734 157.26598242 -11.34020996 153.99143782 -11.34550858 150.7168808 C-11.36399055 139.29415331 -11.3721807 127.87147242 -11.37060547 116.44873047 C-11.3694017 105.79672464 -11.39055483 95.14492065 -11.4220928 84.49296594 C-11.44821276 75.34546207 -11.4589747 66.19802436 -11.45769465 57.05048347 C-11.45718414 51.58758164 -11.46291776 46.12485964 -11.48405075 40.66199493 C-11.50336325 35.53027242 -11.5036057 30.39890274 -11.48901749 25.26716805 C-11.4869202 23.38214416 -11.49168471 21.49709856 -11.5037384 19.61211205 C-11.51910596 17.04301111 -11.50994018 14.4751401 -11.49447632 11.90606689 C-11.50476344 11.1566584 -11.51505057 10.40724991 -11.52564943 9.63513207 C-11.4800779 6.22004125 -11.23629722 4.32114889 -9.18784523 1.53712082 C-5.98234509 -0.71497679 -3.82005521 -0.54572217 0 0 Z M84 150 C85.49488025 153.1068392 87.162976 155.53596904 89.375 158.1875 C92.81669178 162.56458934 95.12895346 166.76799949 97 172 C97.44859375 173.22976563 97.44859375 173.22976563 97.90625 174.484375 C102.42769274 188.63481618 100.45572997 202.99230415 94.25 216.25 C91.80891343 220.9236381 88.99483329 224.70659961 85.3203125 228.4765625 C83.78168982 229.91590335 83.78168982 229.91590335 84 232 C117.6655325 232.06873932 151.33104747 232.1215659 184.99663461 232.15319599 C188.97553973 232.15694789 192.9544447 232.16083088 196.93334961 232.16479492 C198.12148985 232.16597532 198.12148985 232.16597532 199.33363292 232.16717956 C212.14152756 232.18021624 224.94938159 232.20386046 237.75725218 232.23145839 C250.90952675 232.25956105 264.06178013 232.27618652 277.21408349 232.28226548 C285.3229301 232.28637187 293.43166194 232.29931871 301.5404732 232.3237494 C307.76927574 232.34155441 313.99799167 232.34335339 320.22681618 232.33932304 C322.77404103 232.34014585 325.32127038 232.34607952 327.86846924 232.35761642 C354.00816257 232.76540096 354.00816257 232.76540096 376.09765625 220.01171875 C384.02728846 211.3413141 387.39827709 202.35083375 387.375 190.625 C387.37338867 189.78300049 387.37177734 188.94100098 387.37011719 188.07348633 C387.24894774 181.95502303 386.44339882 177.1768907 383 172 C382.34 170.9275 381.68 169.855 381 168.75 C380.34 167.8425 379.68 166.935 379 166 C378.1646875 164.7625 378.1646875 164.7625 377.3125 163.5 C369.91744455 155.50534546 358.55452529 150.45665895 347.67340773 149.8758015 C346.86726147 149.87618122 346.06111521 149.87656094 345.23054028 149.87695217 C344.29400181 149.87496112 343.35746334 149.87297007 342.39254493 149.87091869 C341.37211689 149.87383153 340.35168885 149.87674437 339.30033875 149.87974548 C338.20984169 149.87889106 337.11934464 149.87803663 335.99580222 149.87715632 C332.33531963 149.87550689 328.67488268 149.88101415 325.0144043 149.88647461 C322.39301047 149.88675662 319.77161656 149.88659847 317.15022278 149.8860321 C311.50322178 149.8855079 305.85623233 149.88864394 300.20923424 149.89426994 C292.04463566 149.90239888 283.88004267 149.9050016 275.71544049 149.90625793 C262.46873776 149.90844626 249.22204118 149.9151004 235.9753418 149.92456055 C223.10782909 149.93374034 210.24031806 149.9408184 197.37280273 149.94506836 C196.57957553 149.94533108 195.78634832 149.94559381 194.96908393 149.94586449 C190.98967416 149.94716953 187.01026437 149.94843324 183.03085458 149.94967639 C150.02056524 149.96004217 117.01028344 149.97765453 84 150 Z " fill="#010101" transform="translate(108,265)"/>
<path d="M0 0 C1.69061239 -0.00668677 1.69061239 -0.00668677 3.41537857 -0.01350862 C5.26539537 -0.01323207 5.26539537 -0.01323207 7.15278625 -0.01294994 C8.46687344 -0.01662663 9.78096062 -0.02030332 11.13486862 -0.02409142 C14.78118377 -0.03409194 18.42748247 -0.03782508 22.07380939 -0.04048073 C26.00721098 -0.04438961 29.94059962 -0.05396759 33.87399292 -0.0626936 C43.37297845 -0.08244219 52.87196503 -0.09252248 62.37096596 -0.10142139 C66.84719029 -0.10580718 71.32341344 -0.11117326 75.79963684 -0.11641026 C90.6849798 -0.13342142 105.57032203 -0.14791459 120.45567322 -0.155159 C124.31719463 -0.15706881 128.17871604 -0.15898915 132.04023743 -0.16094494 C132.99996845 -0.16142868 133.95969948 -0.16191242 134.94851327 -0.16241082 C150.48821281 -0.17070739 166.02783528 -0.19603852 181.56750119 -0.22852562 C197.53140898 -0.26162678 213.49527765 -0.27961055 229.45921993 -0.28280324 C238.41843381 -0.28496557 247.37753532 -0.29367361 256.3367157 -0.31926441 C263.96836581 -0.34101326 271.59987626 -0.34900133 279.23155385 -0.33929763 C283.12182023 -0.33476492 287.01179868 -0.33657863 290.90202522 -0.35605907 C294.47151839 -0.37377817 298.04051548 -0.37262325 301.61001456 -0.35716178 C303.49603253 -0.35368931 305.38205623 -0.36974658 307.2680006 -0.38676625 C323.9266767 -0.26224172 336.19661897 6.02880143 348.34541321 16.98578358 C351.48636826 20.30794758 352.39493507 22.09272511 352.31416321 26.69672108 C351.37666321 30.13422108 351.37666321 30.13422108 349.12666321 32.07172108 C346.15021875 33.22171098 344.53108586 33.52557695 341.37666321 33.13422108 C339.12275696 31.37640858 339.12275696 31.37640858 336.81416321 29.00922108 C331.55040853 24.01298159 326.04937183 20.91451633 319.37666321 18.13422108 C318.55319838 17.78460882 317.72973354 17.43499657 316.88131523 17.07479 C312.03246276 15.77346824 307.44193334 15.86541494 302.44285583 15.89371204 C301.3392537 15.89200319 300.23565157 15.89029434 299.09860694 15.88853371 C295.39972246 15.88523882 291.70101927 15.89624271 288.00215149 15.9071703 C285.35104972 15.90773441 282.69995906 15.90750592 280.04885864 15.90628529 C274.34074654 15.90523743 268.63268021 15.91150359 262.92457962 15.92276096 C254.67166783 15.93902654 246.41877814 15.94422505 238.16585205 15.94673695 C224.77549792 15.95111239 211.38516817 15.96441741 197.99482727 15.98334217 C184.98864361 16.00170487 171.98246659 16.01585947 158.97627258 16.0243578 C158.17434711 16.02488324 157.37242164 16.02540869 156.5461954 16.02595006 C152.52310408 16.02856017 148.50001272 16.03108757 144.47692132 16.03357387 C111.11015093 16.05430167 77.74341006 16.0895231 44.37666321 16.13422108 C44.85709579 16.67161411 45.33752838 17.20900715 45.83251953 17.76268482 C46.46285599 18.47399052 47.09319244 19.18529621 47.74263 19.91815662 C48.36743759 20.62054966 48.99224518 21.3229427 49.63598633 22.04662037 C51.99960738 24.8813205 53.54355798 27.63624124 55.18916321 30.94672108 C56.03414368 32.59607655 56.03414368 32.59607655 56.89619446 34.27875233 C61.41670051 45.01650855 60.66841752 56.90265038 60.65132141 68.31171131 C60.65567474 70.23785568 60.66085995 72.16399833 60.66680908 74.09013844 C60.68013518 79.29208877 60.68078551 84.49396618 60.67824578 89.69593024 C60.67717295 94.04295019 60.68206678 98.38995558 60.6868512 102.73697239 C60.6979216 112.98618042 60.69839597 123.23535177 60.69233704 133.48456287 C60.68628175 144.05991367 60.69865325 154.63513194 60.7199071 165.21046013 C60.73750064 174.2985759 60.74352851 183.38664939 60.74026936 192.47478157 C60.73845472 197.89959708 60.74111192 203.32431777 60.7549839 208.74911785 C60.76752305 213.84226055 60.76565542 218.93519526 60.75257301 224.02833462 C60.75020013 225.89884351 60.75296728 227.7693669 60.76119614 229.6398592 C60.771604 232.18891855 60.76361174 234.73727199 60.75088501 237.28630543 C60.75825929 238.02977661 60.76563358 238.77324779 60.77323133 239.53924841 C60.74002173 242.69095442 60.55814321 244.81847132 58.97217083 247.57784081 C57.09350079 249.41043938 56.02576613 249.81648099 53.43916321 250.13422108 C52.77013977 250.23734608 52.10111633 250.34047108 51.41181946 250.44672108 C48.31766609 249.97161115 47.30109011 248.55086035 45.37666321 246.13422108 C44.86885452 243.12763309 44.86885452 243.12763309 44.85768127 239.54102039 C44.85018002 238.88015076 44.84267877 238.21928113 44.83495021 237.53838515 C44.81466192 235.32554483 44.82277715 233.11372806 44.83076477 230.90082264 C44.8220303 229.31403559 44.81154496 227.72725735 44.79943848 226.14049244 C44.77154212 221.83294556 44.76817459 217.52568555 44.76915836 213.21806145 C44.76603237 208.71631451 44.74042073 204.21469738 44.71717834 199.71301746 C44.6765907 191.18852908 44.65627115 182.66411725 44.64320445 174.13954711 C44.62734375 164.43461258 44.58893207 154.72980849 44.54861116 145.02494955 C44.46617441 125.0614164 44.4121059 105.09788933 44.37666321 85.13422108 C43.91775696 85.67691639 43.45885071 86.2196117 42.98603821 86.77875233 C42.37244446 87.49418201 41.75885071 88.2096117 41.12666321 88.94672108 C40.22174133 90.00826405 40.22174133 90.00826405 39.29853821 91.09125233 C37.37666321 93.13422108 37.37666321 93.13422108 35.16963196 94.64984608 C32.91089737 96.1697161 32.91089737 96.1697161 32.93916321 100.07172108 C32.94045227 100.74074451 32.94174133 101.40976795 32.94306946 102.09906483 C32.05456986 105.29153581 30.07250289 106.32827022 27.37666321 108.13422108 C14.22041573 114.38440316 -1.93892094 113.92485969 -15.54911804 109.38812733 C-30.73281421 103.19503143 -40.9035029 92.17733763 -47.93583679 77.57172108 C-53.82805924 63.23313684 -52.9667386 47.43592988 -47.47489929 33.14593983 C-40.65060412 17.93920115 -28.32873745 7.79014441 -12.91239929 1.86078358 C-8.57721505 0.48476947 -4.54133453 0.00835431 0 0 Z " fill="#000000" transform="translate(51.62333679199219,-0.13422107696533203)"/>
<path d="M0 0 C12.83913662 12.04167472 18.72303553 26.76857679 19.33862305 44.17895508 C19.60417075 60.66608109 15.82855277 76.06601061 9 91 C8.63777344 91.84433594 8.27554687 92.68867188 7.90234375 93.55859375 C5.99163102 97.77453883 4.10815494 100.7502961 0 103 C-3.93341567 103.08027379 -5.47043575 102.4616714 -8.4375 99.875 C-10.50847883 96.06439895 -9.87722113 94.20002842 -9 90 C-7.73046875 86.9296875 -7.73046875 86.9296875 -6.1875 83.875 C1.4411145 67.93926441 6.25938236 46.07206531 0.375 28.6875 C-1.45865247 24.54529226 -3.92016526 21.02079334 -6.828125 17.55859375 C-8 16 -8 16 -8 14 C-8.804375 13.62875 -8.804375 13.62875 -9.625 13.25 C-12 12 -12 12 -14.4375 10.125 C-26.80096522 1.98469865 -42.92070679 2.48420406 -56.93286133 5.08227539 C-79.50985663 9.89104093 -98.82708919 22.60623071 -116.14453125 37.42089844 C-117.88149748 38.89914812 -119.6385054 40.34787678 -121.40625 41.7890625 C-135.8400071 53.67915705 -149.71713169 67.0600694 -161 82 C-162.00742664 83.2812769 -163.0167006 84.56110244 -164.02734375 85.83984375 C-194.24877276 124.33756957 -211.77906753 168.84287361 -224.56469727 215.73583984 C-224.8337941 216.72272797 -225.10289093 217.70961609 -225.38014221 218.72640991 C-225.58469528 219.47669464 -225.78924835 220.22697937 -226 221 C-225.08301268 220.07840371 -224.16602535 219.15680742 -223.22125053 218.20728397 C-201.46000168 196.33777811 -179.68587384 174.48118745 -157.8957656 152.64043895 C-155.21459486 149.95301457 -152.53353325 147.26548136 -149.85253906 144.57788086 C-149.31879288 144.04282313 -148.7850467 143.50776539 -148.23512639 142.95649379 C-139.58967229 134.28927497 -130.95309098 125.61326625 -122.31974874 116.93398476 C-113.46289946 108.03040053 -104.59659952 99.13631039 -95.72142994 90.25098747 C-90.24394986 84.76664209 -84.7740013 79.27499949 -79.31341489 73.77383255 C-75.12753416 69.5584319 -70.92854345 65.3562619 -66.72450447 61.15896606 C-65.00041403 59.4334969 -63.28062373 57.70371896 -61.56543159 55.96940422 C-59.22732915 53.60651363 -56.87440783 51.25945351 -54.51705933 48.91578674 C-53.49855528 47.87543639 -53.49855528 47.87543639 -52.4594754 46.81406885 C-48.83730804 43.24864583 -46.36236488 40.96398455 -41 41 C-38.67268444 42.13779872 -36.83159286 43.16840714 -35 45 C-34.46476123 48.37020706 -34.27653271 50.88198758 -36.18476486 53.83088005 C-37.98869014 55.87352226 -39.87815694 57.77686434 -41.83349609 59.67527771 C-42.56853552 60.41629811 -43.30357494 61.15731851 -44.06088829 61.92079407 C-46.53206199 64.4035125 -49.02745229 66.86036079 -51.5234375 69.31811523 C-53.2983171 71.09102068 -55.07165743 72.86546825 -56.84356689 74.64134216 C-60.66383236 78.46320247 -64.49456512 82.2740615 -68.33526611 86.07537651 C-73.88818206 91.57138479 -79.42165019 97.08663863 -84.95057464 102.60676909 C-93.92151182 111.5623887 -102.9079671 120.50226714 -111.90429688 129.43237305 C-120.64296442 138.10678009 -129.3742441 146.7885144 -138.09570312 155.48022461 C-138.63336233 156.01604475 -139.17102153 156.55186489 -139.72497344 157.103922 C-142.42222651 159.79203976 -145.11933511 162.48030242 -147.81637192 165.16863716 C-170.18856397 187.46827094 -192.58624077 209.7421428 -215 232 C-213.25887796 231.5263945 -211.5178477 231.05245158 -209.77685547 230.57836914 C-208.80730927 230.31447891 -207.83776306 230.05058868 -206.83883667 229.77870178 C-152.65675372 214.91638687 -103.25078131 193.10149538 -61.7890625 154.56640625 C-59.46189155 152.42501785 -57.09941385 150.35657371 -54.6875 148.3125 C-51.48359465 145.52877896 -48.7244317 142.53731611 -45.984375 139.30078125 C-44.00502685 137.00582837 -41.95860095 134.78273406 -39.89379883 132.56469727 C-35.71533544 128.0752133 -31.71579637 123.57709598 -28.21875 118.5234375 C-27 117 -27 117 -24 115 C-21.80859375 114.91796875 -21.80859375 114.91796875 -19.4375 115.1875 C-18.25994141 115.30158203 -18.25994141 115.30158203 -17.05859375 115.41796875 C-15 116 -15 116 -13 119 C-12.55567816 123.01760486 -12.54341567 125.24334371 -14.65234375 128.73828125 C-15.78349609 130.01251953 -15.78349609 130.01251953 -16.9375 131.3125 C-17.76121094 132.25609375 -18.58492188 133.1996875 -19.43359375 134.171875 C-20.28050781 135.10515625 -21.12742187 136.0384375 -22 137 C-23.13115234 138.27617187 -23.13115234 138.27617187 -24.28515625 139.578125 C-25.76801466 141.24143708 -27.26032791 142.89636567 -28.76171875 144.54296875 C-30.23458807 146.15978342 -31.69592425 147.787193 -33.14453125 149.42578125 C-41.55538195 158.92776934 -50.27877954 167.89960378 -60.234375 175.79296875 C-63.13485505 178.10761738 -65.93611156 180.51860927 -68.75 182.9375 C-105.96931578 213.87427143 -152.20653138 230.2469093 -197.85057068 244.08345032 C-200.95992881 245.02748696 -204.06627525 245.98124932 -207.17263794 246.93508911 C-209.35336367 247.59937082 -211.5384745 248.24724731 -213.72436523 248.89428711 C-239.58661244 256.7067208 -255.30356204 271.92668428 -273.6953125 291.11352539 C-276.05720014 293.5720055 -278.44050117 296.00794899 -280.828125 298.44140625 C-281.54494446 299.20062881 -282.26176392 299.95985138 -283.00030518 300.74208069 C-288.05996624 305.85335045 -288.05996624 305.85335045 -292.85449219 306.60131836 C-296 306 -296 306 -298.5 303.9375 C-300.02363548 300.95371385 -300.38025174 299.2998153 -299.80352783 296.01428223 C-297.98239727 291.44907517 -293.89520204 288.27041386 -290.3984375 284.953125 C-289.52861237 284.10127625 -288.65878723 283.24942749 -287.76260376 282.37176514 C-284.98063885 279.64978306 -282.17982292 276.94840818 -279.375 274.25 C-276.59323133 271.56435426 -273.8163837 268.87428263 -271.05166626 266.17108154 C-269.33344021 264.49188767 -267.6054577 262.82259579 -265.86605835 261.16534424 C-256.28938632 251.82498238 -250.82059811 241.31480525 -246 229 C-245.59136719 227.96875 -245.18273437 226.9375 -244.76171875 225.875 C-242.40814936 219.61925856 -240.51230677 213.32907265 -238.76831055 206.88208008 C-231.63820321 180.53860681 -222.86611488 154.60840091 -211 130 C-210.38608398 128.72648682 -210.38608398 128.72648682 -209.75976562 127.42724609 C-199.20035718 105.85357546 -185.38975573 86.37398721 -170 68 C-169.32130859 67.18378174 -169.32130859 67.18378174 -168.62890625 66.35107422 C-159.8831609 55.85440221 -150.72561579 45.81549733 -140.29296875 36.953125 C-138.42099222 35.35859644 -136.57632179 33.74249358 -134.73828125 32.109375 C-121.57385403 20.45985981 -108.23730838 10.25635888 -92.70776367 1.96850586 C-91.08776547 1.0497735 -89.54540373 -0.00205521 -88.01171875 -1.05859375 C-84.63548357 -3.23497362 -81.19183151 -4.69774544 -77.4375 -6.0625 C-76.74003662 -6.31926514 -76.04257324 -6.57603027 -75.32397461 -6.84057617 C-50.61076451 -15.70109064 -21.65859051 -16.78861158 0 0 Z " fill="#020201" transform="translate(493,44)"/>
<path d="M0 0 C0.33 0.66 0.66 1.32 1 2 C95.05 2 189.1 2 286 2 C283.13989687 14.87046407 277.41813456 21.80730581 266.875 29.1875 C253.84350021 35.97057233 238.30370047 34.4048802 224.10620117 34.34057617 C221.48362742 34.33972902 218.86105296 34.34020676 216.23847961 34.34190369 C210.61340711 34.34346904 204.98843983 34.33413763 199.36339378 34.31719017 C191.23075802 34.29270378 183.0981726 34.2849851 174.96550397 34.2812262 C161.76758261 34.27467675 148.56971719 34.25475669 135.37182617 34.22631836 C122.55900348 34.19873864 109.74619603 34.17752426 96.93334961 34.16479492 C96.14222419 34.16400675 95.35109877 34.16321858 94.53599986 34.16240653 C90.56675525 34.15849113 86.59751053 34.15470007 82.62826574 34.15097082 C49.75213645 34.11992187 16.87607574 34.06712738 -16 34 C-14.52130577 30.92708231 -12.888416 28.5483427 -10.6875 25.9375 C-4.54830716 18.1356091 -1.41999818 9.77043525 0 0 Z " fill="#E0CEC3" transform="translate(208,463)"/>
<path d="M0 0 C9.67821639 7.92115925 13.76481002 15.83808296 16 28 C16.45703973 32.84624913 16.63997447 37.64425455 16.66577148 42.51000977 C16.68760063 44.6975844 16.76820934 46.87838555 16.84960938 49.06445312 C16.97740265 55.80041092 16.86086435 60.98914141 12.20703125 66.33203125 C10.11645508 68.31176758 10.11645508 68.31176758 8 70 C7.29834717 70.57580811 6.59669434 71.15161621 5.8737793 71.74487305 C4 73 4 73 1.8125 72.75 C0 72 0 72 -1 71 C-2.96599037 70.79985014 -2.96599037 70.79985014 -5.25 70.8125 C-6.01828125 70.79832031 -6.7865625 70.78414063 -7.578125 70.76953125 C-10.03356076 70.87478205 -10.03356076 70.87478205 -12.23046875 71.984375 C-20.54901684 75.03490039 -32.40534806 74.14267456 -40.5625 71.0625 C-51.8233354 65.47145585 -60.13954853 55.93297312 -64.38696289 44.17016602 C-65.41468659 40.53199955 -65.53217702 37.01308185 -65.5 33.25 C-65.49427979 32.4650415 -65.48855957 31.68008301 -65.48266602 30.87133789 C-65.15085114 19.96613585 -60.63351643 10.75279012 -53 3 C-36.95105821 -11.04282407 -17.58777091 -10.99235682 0 0 Z " fill="#DECDC2" transform="translate(81,23)"/>
<path d="M0 0 C10.44442084 6.24446405 18.33873918 14.54015505 21.57421875 26.5390625 C21.99067734 29.65673664 22.05212066 32.70912084 22.01171875 35.8515625 C22.00342041 36.68606934 21.99512207 37.52057617 21.98657227 38.38037109 C21.65644568 50.478747 17.23205531 59.18328279 8.5078125 67.51171875 C-0.1635473 74.81799865 -10.75550114 77.93848093 -22.0078125 77.75 C-32.43730682 76.8401572 -41.73250229 71.75591768 -48.80078125 64.1640625 C-55.51469057 56.07224825 -60.17371641 45.63714933 -59.703125 34.9453125 C-58.27125321 22.52231218 -53.4481245 12.02987264 -43.61328125 4.0390625 C-30.82179358 -4.73224333 -14.19744656 -7.08882269 0 0 Z " fill="#DECCC1" transform="translate(171.42578125,419.4609375)"/>
<path d="M0 0 C0.64988026 -0.00623996 1.29976052 -0.01247993 1.96933413 -0.01890898 C4.14524992 -0.03485395 6.32004774 -0.02223024 8.49597168 -0.00964355 C10.05656081 -0.01506406 11.61714481 -0.02218632 13.17771912 -0.03088379 C17.41534646 -0.0491288 21.65258453 -0.04204489 25.89021873 -0.02936745 C30.3233076 -0.01924582 34.75636296 -0.02863079 39.18945312 -0.03491211 C46.63429758 -0.04219097 54.07898335 -0.0325946 61.52380371 -0.0135498 C70.13310923 0.00821945 78.74203585 0.00116824 87.35133219 -0.02085543 C94.74083148 -0.03900267 102.13021667 -0.04157107 109.51973104 -0.03110075 C113.93416143 -0.02486208 118.34841368 -0.02404038 122.76283264 -0.0372467 C126.91292128 -0.04879483 131.06252106 -0.04079886 135.21255684 -0.01766968 C136.73635102 -0.01237697 138.26018628 -0.013906 139.78396416 -0.02272034 C141.86296198 -0.03363832 143.9403896 -0.01996097 146.01928711 0 C147.18292534 0.0015081 148.34656357 0.0030162 149.54546356 0.00457001 C153.15947895 0.61828688 154.34857571 1.58833404 156.50964355 4.50793457 C157.24098684 10.46315845 157.24098684 10.46315845 155.19714355 13.38293457 C151.64579088 15.75050302 148.39908839 15.6416239 144.26016235 15.66183472 C142.95065613 15.67043518 141.6411499 15.67903564 140.29196167 15.68789673 C138.83734171 15.69233182 137.38272132 15.69663019 135.92810059 15.70080566 C134.39884251 15.70870772 132.86958629 15.71697673 131.34033203 15.72558594 C126.31605812 15.7517883 121.29177592 15.76710912 116.26745605 15.78137207 C114.53807444 15.78673198 112.80869288 15.79210949 111.07931137 15.79750443 C103.88711074 15.81912814 96.69491235 15.83786606 89.50268745 15.84912682 C79.19251055 15.86537554 68.88270992 15.89858128 58.57267487 15.95552766 C51.32418849 15.994201 44.07580288 16.01375624 36.82721603 16.01904738 C32.49702701 16.02270368 28.16723947 16.0347545 23.83716202 16.06715012 C19.76423091 16.09718617 15.69194518 16.10355891 11.618927 16.09176636 C10.12454703 16.09154526 8.63013749 16.0998802 7.13586044 16.1174202 C5.09506328 16.14007075 3.05397408 16.12884514 1.01309204 16.11593628 C-0.69974629 16.1209015 -0.69974629 16.1209015 -2.44718742 16.12596703 C-6.45919896 15.31117385 -7.96239184 13.65903432 -10.49035645 10.50793457 C-11.05285645 7.44543457 -11.05285645 7.44543457 -10.49035645 4.50793457 C-7.36297556 0.37807219 -5.06521607 0.00656464 0 0 Z " fill="#030303" transform="translate(168.4903564453125,80.4920654296875)"/>
<path d="M0 0 C2.59102741 3.46519502 3.37558013 5.98584606 3.38095093 10.27514648 C3.3894104 11.31814911 3.39786987 12.36115173 3.40658569 13.4357605 C3.400513 14.56942047 3.39444031 15.70308044 3.38818359 16.87109375 C3.39344055 18.07323517 3.39869751 19.27537659 3.40411377 20.51394653 C3.41504294 23.80326035 3.4124984 27.09221106 3.40297651 30.38151932 C3.39536803 33.82784016 3.40242882 37.27413717 3.40713501 40.72045898 C3.41258912 46.50736836 3.40541007 52.29416278 3.39111328 58.08105469 C3.37478733 64.76638343 3.38007609 71.45143767 3.3965925 78.13675976 C3.41021726 83.88213795 3.41212221 89.62743363 3.40427649 95.37282276 C3.39960538 98.80188813 3.39895953 102.23082457 3.40888596 105.65988159 C3.41649542 109.48307922 3.40490224 113.30574805 3.38818359 117.12890625 C3.39729263 118.82939621 3.39729263 118.82939621 3.40658569 120.5642395 C3.39812622 121.60724213 3.38966675 122.65024475 3.38095093 123.72485352 C3.37981985 124.6281691 3.37868877 125.53148468 3.37752342 126.46217346 C2.91239595 129.58890091 1.87754686 131.4727253 0 134 C-3.36053983 135.09582821 -5.34178102 135.17951427 -8.75 134.25 C-11 133 -11 133 -13 130 C-13.25726891 127.67424107 -13.25726891 127.67424107 -13.26742554 124.88270569 C-13.27595551 123.82417892 -13.28448547 122.76565216 -13.29327393 121.67504883 C-13.29236755 120.51392578 -13.29146118 119.35280273 -13.29052734 118.15649414 C-13.29724457 116.93353134 -13.30396179 115.71056854 -13.31088257 114.45054626 C-13.3266423 111.09511462 -13.33323853 107.73993046 -13.33451414 104.38447881 C-13.33641307 101.5837294 -13.34377044 98.78300376 -13.35085833 95.98226351 C-13.36714525 89.37496355 -13.37202697 82.76771811 -13.37060547 76.16040039 C-13.36940358 69.34327042 -13.3905139 62.52645681 -13.4220928 55.70940691 C-13.44823722 49.85708789 -13.45897356 44.00487231 -13.45769465 38.15249532 C-13.45718451 34.65685402 -13.46289567 31.16149389 -13.48405075 27.66591072 C-13.50699601 23.76811459 -13.49792343 19.87075312 -13.48583984 15.97290039 C-13.49707886 14.81380157 -13.50831787 13.65470276 -13.51989746 12.46047974 C-13.51150848 11.39913315 -13.50311951 10.33778656 -13.49447632 9.24427795 C-13.49556585 8.32269425 -13.49665539 7.40111055 -13.49777794 6.45160007 C-12.84151223 3.21943382 -11.53811132 2.0416184 -9 0 C-5.40997619 -1.1966746 -3.61734062 -1.05505768 0 0 Z " fill="#010101" transform="translate(412,254)"/>
<path d="M0 0 C1.73006035 -0.00832352 1.73006035 -0.00832352 3.49507141 -0.01681519 C7.3076837 -0.02862614 11.11911144 -0.00431927 14.93164062 0.02148438 C17.580543 0.02319514 20.2293986 0.0232333 22.8782959 0.0213623 C28.42991512 0.02141584 33.98119357 0.04114956 39.53271484 0.07324219 C45.94540999 0.11013362 52.35765888 0.11891741 58.7704463 0.11194468 C64.94653806 0.10563307 71.12247725 0.11640604 77.29853821 0.13591003 C79.92360182 0.14294529 82.54867893 0.14606393 85.17375183 0.1452179 C88.84134331 0.14701398 92.5082995 0.16838116 96.17578125 0.1953125 C97.26268753 0.1923819 98.34959381 0.18945129 99.46943665 0.18643188 C105.17388981 0.25111597 109.34034692 0.36769067 113.58789062 4.61523438 C114.17651704 10.85467433 114.17651704 10.85467433 111.88621521 13.81395721 C109.15920553 15.95120984 107.92643734 16.11737171 104.50219727 16.12316895 C102.96283005 16.14008789 102.96283005 16.14008789 101.3923645 16.15734863 C100.27223969 16.14925171 99.15211487 16.14115479 97.99804688 16.1328125 C96.81395233 16.13982178 95.62985779 16.14683105 94.40988159 16.15405273 C91.16593073 16.16863972 87.92263289 16.16522346 84.67869186 16.15253639 C81.28260687 16.1424032 77.88656524 16.15180294 74.49047852 16.15808105 C68.78751808 16.16535658 63.0847649 16.15577245 57.38183594 16.13671875 C50.79015907 16.11494992 44.19897708 16.12200138 37.6073122 16.14402437 C31.94602633 16.16218127 26.28488937 16.16473537 20.62358379 16.1542697 C17.24312415 16.14803625 13.86289706 16.14719471 10.48245239 16.16041565 C6.71387055 16.17055103 2.94624483 16.15512029 -0.82226562 16.1328125 C-1.94239044 16.14090942 -3.06251526 16.14900635 -4.21658325 16.15734863 C-5.24282806 16.14606934 -6.26907288 16.13479004 -7.32641602 16.12316895 C-8.66259727 16.12090679 -8.66259727 16.12090679 -10.02577209 16.11859894 C-13.2053937 15.44790211 -14.41028339 14.12360442 -16.41210938 11.61523438 C-16.97460938 8.67773438 -16.97460938 8.67773438 -16.41210938 5.61523438 C-12.064189 -0.71597859 -7.01987298 -0.08566175 0 0 Z " fill="#050404" transform="translate(174.412109375,128.384765625)"/>
<path d="M0 0 C0.93050171 -0.00700928 1.86100342 -0.01401855 2.81970215 -0.02124023 C5.89572993 -0.03884649 8.97083785 -0.02718794 12.046875 -0.01367188 C14.18392107 -0.01636603 16.32096594 -0.0202478 18.45800781 -0.02526855 C22.93696767 -0.03116718 27.41560847 -0.02258871 31.89453125 -0.00390625 C37.63829952 0.01888325 43.3813202 0.00576216 49.12506104 -0.01819611 C53.53798057 -0.03264409 57.9507226 -0.02805263 62.36364746 -0.01768494 C64.48156828 -0.0150149 66.59950517 -0.01829712 68.71740723 -0.02760315 C71.67662295 -0.03775205 74.63462479 -0.02229048 77.59375 0 C78.47075562 -0.00809692 79.34776123 -0.01619385 80.25134277 -0.02453613 C86.15206575 0.05788853 86.15206575 0.05788853 89.34082031 2.33117676 C91.48473824 5.55046868 91.33637056 7.7411092 90.796875 11.51757812 C89.34082031 13.70397949 89.34082031 13.70397949 86.796875 15.51757812 C83.73149633 16.11257591 80.70830841 16.0639113 77.59375 16.03515625 C76.66324829 16.04216553 75.73274658 16.0491748 74.77404785 16.05639648 C71.69802007 16.07400274 68.62291215 16.06234419 65.546875 16.04882812 C63.40982893 16.05152228 61.27278406 16.05540405 59.13574219 16.0604248 C54.65678233 16.06632343 50.17814153 16.05774496 45.69921875 16.0390625 C39.95545048 16.016273 34.2124298 16.02939409 28.46868896 16.05335236 C24.05576943 16.06780034 19.6430274 16.06320888 15.23010254 16.05284119 C13.11218172 16.05017115 10.99424483 16.05345337 8.87634277 16.0627594 C5.91712705 16.0729083 2.95912521 16.05744673 0 16.03515625 C-0.87700562 16.04325317 -1.75401123 16.0513501 -2.65759277 16.05969238 C-8.55831575 15.97726772 -8.55831575 15.97726772 -11.74707031 13.70397949 C-13.89098824 10.48468757 -13.74262056 8.29404705 -13.203125 4.51757812 C-9.80144539 -0.59035979 -5.58939251 -0.05160387 0 0 Z " fill="#000000" transform="translate(171.203125,178.482421875)"/>
<path d="M0 0 C0.78273788 -0.0087616 1.56547577 -0.01752319 2.37193298 -0.02655029 C4.95099857 -0.04849925 7.52833986 -0.03400882 10.10742188 -0.01708984 C11.9043409 -0.0204593 13.70125771 -0.02531301 15.49816895 -0.03158569 C19.26088193 -0.03895088 23.02300072 -0.02826321 26.78564453 -0.00488281 C31.60468084 0.0236051 36.42232487 0.00719918 41.24131012 -0.02274513 C44.95089171 -0.04082788 48.66014412 -0.03505567 52.36973572 -0.02210617 C54.14631821 -0.01877484 55.92293076 -0.02284965 57.69947815 -0.03450394 C60.1845698 -0.04722931 62.66741884 -0.02781507 65.15234375 0 C66.24971107 -0.01518173 66.24971107 -0.01518173 67.36924744 -0.03067017 C71.2604778 0.04986919 72.95030548 0.54708901 76.03625488 2.9960022 C78.07617188 5.64697266 78.07617188 5.64697266 78.63867188 8.70947266 C77.95425983 12.28362443 76.92798318 13.44700393 74.07617188 15.64697266 C70.5395924 16.82583248 67.33516059 16.80231675 63.65478516 16.80810547 C62.52500748 16.81555283 62.52500748 16.81555283 61.37240601 16.82315063 C58.88042284 16.83775717 56.38850332 16.84457152 53.89648438 16.85009766 C52.16397093 16.85585009 50.4314575 16.86160781 48.69894409 16.86737061 C45.06573185 16.87787611 41.4325417 16.88372181 37.79931641 16.88720703 C33.14648408 16.89269266 28.49394426 16.91672397 23.84120369 16.94517899 C20.26210682 16.96381254 16.68308033 16.96901133 13.10393906 16.97054291 C11.38874588 16.97356804 9.6735539 16.9815919 7.95840836 16.99472809 C5.55749563 17.01180481 3.15729666 17.00990469 0.75634766 17.00341797 C0.04967957 17.01263275 -0.65698853 17.02184753 -1.3850708 17.03134155 C-5.72869205 16.99462517 -8.46671401 16.3076318 -11.92382812 13.64697266 C-13.36813667 10.75835556 -13.30071318 8.85049564 -12.92382812 5.64697266 C-9.14940224 0.69904448 -5.95530381 -0.08238976 0 0 Z " fill="#0C0B0B" transform="translate(170.923828125,227.35302734375)"/>
<path d="M0 0 C2.1875 1.625 2.1875 1.625 3.1875 3.625 C3.5694929 7.13933469 3.75495458 8.91370228 1.5078125 11.73046875 C-1.13109383 13.88513133 -2.9357211 14.3959668 -6.25 15.0625 C-12.01517669 16.47689002 -14.72134455 18.63763507 -18.125 23.5 C-19.6802436 28.30711658 -19.17835683 32.35262707 -17.125 36.875 C-15.18792872 40.35903793 -13.60274596 42.10890162 -9.8125 43.625 C-8.29515699 43.95402958 -6.77388118 44.26521826 -5.25 44.5625 C-2.28027712 45.17129319 -0.80553209 45.62975857 1.75 47.375 C3.67993724 50.39577133 3.77438021 52.10371874 3.1875 55.625 C1.8125 58 1.8125 58 -0.8125 59.625 C-8.53106737 60.69888763 -15.56332849 59.41778641 -21.9375 54.875 C-29.10521411 49.13252634 -34.13844695 42.50764483 -35.19921875 33.25 C-35.53728003 22.4320389 -33.0971642 15.31175519 -25.734375 7.4140625 C-19.07504112 1.21492649 -8.9390593 -4.37020677 0 0 Z " fill="#040404" transform="translate(70.8125,26.375)"/>
<path d="M0 0 C2.296875 1.27734375 2.296875 1.27734375 4 3 C4.45313167 6.17192166 4.68106637 7.98992989 4 11 C0.705415 15.03852355 -2.98359877 15.52686632 -7.84765625 16.44140625 C-12.26896202 17.58885947 -14.55207279 20.32810918 -17 24 C-17.5728928 28.80634735 -17.63642451 33.42568673 -15.8125 37.9375 C-12.3174273 41.9146517 -9.66491098 44.01288627 -4.4375 45 C-1.49109701 45.57454858 0.00485134 46.00319478 2.5625 47.6875 C4.59589807 50.95861864 4.48034584 53.22585408 4 57 C2.859375 58.6875 2.859375 58.6875 1 60 C-6.68911404 61.16756725 -13.61353062 60.52551142 -20 56 C-20.92232422 55.36384766 -20.92232422 55.36384766 -21.86328125 54.71484375 C-27.49784397 50.38334907 -30.77044954 44.68865139 -33 38 C-33.89235946 27.51760025 -34.04111101 18.51281864 -27 10 C-19.3881088 2.52600538 -10.81864144 -1.68989499 0 0 Z " fill="#040303" transform="translate(171,426)"/>
<path d="M0 0 C1.08792847 -0.01260864 2.17585693 -0.02521729 3.29675293 -0.03820801 C5.05154968 -0.02606262 5.05154968 -0.02606262 6.84179688 -0.01367188 C8.65025085 -0.01941223 8.65025085 -0.01941223 10.49523926 -0.02526855 C13.04387243 -0.02799013 15.59253341 -0.02061193 18.14111328 -0.00390625 C22.0458799 0.01749773 25.94880635 -0.00370191 29.85351562 -0.02929688 C32.32878011 -0.02665365 34.80404345 -0.02152877 37.27929688 -0.01367188 C38.44916138 -0.0217688 39.61902588 -0.02986572 40.82434082 -0.03820801 C41.91226929 -0.02559937 43.00019775 -0.01299072 44.12109375 0 C45.55527649 0.00477356 45.55527649 0.00477356 47.01843262 0.00964355 C50.3256351 0.67044881 51.51837727 1.87757092 53.56054688 4.51757812 C54.06054688 8.01757812 54.06054688 8.01757812 53.56054688 11.51757812 C51.51837727 14.15758533 50.3256351 15.36470744 47.01843262 16.0255127 C46.06231079 16.02869507 45.10618896 16.03187744 44.12109375 16.03515625 C43.03316528 16.04776489 41.94523682 16.06037354 40.82434082 16.07336426 C39.65447632 16.06526733 38.48461182 16.05717041 37.27929688 16.04882812 C35.4708429 16.05456848 35.4708429 16.05456848 33.62585449 16.0604248 C31.07722132 16.06314638 28.52856034 16.05576818 25.97998047 16.0390625 C22.07521385 16.01765852 18.1722874 16.03885816 14.26757812 16.06445312 C11.79231364 16.0618099 9.3170503 16.05668502 6.84179688 16.04882812 C5.08700012 16.06097351 5.08700012 16.06097351 3.29675293 16.07336426 C2.20882446 16.06075562 1.120896 16.04814697 0 16.03515625 C-1.43418274 16.03038269 -1.43418274 16.03038269 -2.89733887 16.0255127 C-6.20454135 15.36470744 -7.39728352 14.15758533 -9.43945312 11.51757812 C-9.93945312 8.01757812 -9.93945312 8.01757812 -9.43945312 4.51757812 C-6.56214671 0.7979509 -4.64344984 0.01545534 0 0 Z " fill="#010101" transform="translate(167.439453125,276.482421875)"/>
</svg>
